<mxfile host="app.diagrams.net" modified="2022-12-05T00:52:21.724Z" agent="5.0 (X11; Linux x86_64) AppleWebKit/537.36 (KHTML, like Gecko) Chrome/108.0.0.0 Safari/537.36" etag="3ezgG9CGxO55vELqoXj5" version="20.6.0" type="github">
  <diagram name="Page-1" id="42789a77-a242-8287-6e28-9cd8cfd52e62">
    <mxGraphModel dx="2062" dy="763" grid="1" gridSize="10" guides="1" tooltips="1" connect="1" arrows="1" fold="1" page="1" pageScale="1" pageWidth="1100" pageHeight="850" background="none" math="0" shadow="0">
      <root>
        <mxCell id="0" />
        <mxCell id="1" parent="0" />
        <mxCell id="1ea317790d2ca983-13" value="es un" style="edgeStyle=none;rounded=1;html=1;labelBackgroundColor=none;startArrow=none;startFill=0;startSize=5;endArrow=classicThin;endFill=1;endSize=5;jettySize=auto;orthogonalLoop=1;strokeColor=#B3B3B3;strokeWidth=1;fontFamily=Verdana;fontSize=12;shadow=0;" parent="1" source="1ea317790d2ca983-1" target="1ea317790d2ca983-9" edge="1">
          <mxGeometry x="0.0418" y="1" relative="1" as="geometry">
            <mxPoint as="offset" />
          </mxGeometry>
        </mxCell>
        <mxCell id="1ea317790d2ca983-14" value="enfocado" style="edgeStyle=none;rounded=1;html=1;labelBackgroundColor=none;startArrow=none;startFill=0;startSize=5;endArrow=classicThin;endFill=1;endSize=5;jettySize=auto;orthogonalLoop=1;strokeColor=#B3B3B3;strokeWidth=1;fontFamily=Verdana;fontSize=12" parent="1" source="1ea317790d2ca983-1" target="1ea317790d2ca983-3" edge="1">
          <mxGeometry relative="1" as="geometry" />
        </mxCell>
        <mxCell id="1ea317790d2ca983-1" value="Proyecto inform치tico" style="ellipse;whiteSpace=wrap;html=1;rounded=0;shadow=1;comic=0;labelBackgroundColor=none;strokeWidth=1;fontFamily=Verdana;fontSize=12;align=center;" parent="1" vertex="1">
          <mxGeometry x="410" y="40" width="140" height="60" as="geometry" />
        </mxCell>
        <mxCell id="1ea317790d2ca983-21" value="incluye" style="edgeStyle=none;rounded=1;html=1;labelBackgroundColor=none;startArrow=none;startFill=0;startSize=5;endArrow=classicThin;endFill=1;endSize=5;jettySize=auto;orthogonalLoop=1;strokeColor=#B3B3B3;strokeWidth=1;fontFamily=Verdana;fontSize=12;exitX=0.714;exitY=0.935;exitDx=0;exitDy=0;exitPerimeter=0;" parent="1" source="1ea317790d2ca983-1" target="1ea317790d2ca983-7" edge="1">
          <mxGeometry relative="1" as="geometry" />
        </mxCell>
        <mxCell id="1ea317790d2ca983-22" value="puede ser" style="edgeStyle=none;rounded=1;html=1;labelBackgroundColor=none;startArrow=none;startFill=0;startSize=5;endArrow=classicThin;endFill=1;endSize=5;jettySize=auto;orthogonalLoop=1;strokeColor=#B3B3B3;strokeWidth=1;fontFamily=Verdana;fontSize=12;" parent="1" source="1ea317790d2ca983-7" target="1ea317790d2ca983-6" edge="1">
          <mxGeometry relative="1" as="geometry" />
        </mxCell>
        <mxCell id="1ea317790d2ca983-2" value="&lt;span&gt;personas&lt;/span&gt;" style="ellipse;whiteSpace=wrap;html=1;rounded=0;shadow=1;comic=0;labelBackgroundColor=none;strokeWidth=1;fontFamily=Verdana;fontSize=12;align=center;" parent="1" vertex="1">
          <mxGeometry x="322.5" y="280" width="100" height="50" as="geometry" />
        </mxCell>
        <mxCell id="1ea317790d2ca983-15" value="sobre" style="edgeStyle=none;rounded=1;html=1;labelBackgroundColor=none;startArrow=none;startFill=0;startSize=5;endArrow=classicThin;endFill=1;endSize=5;jettySize=auto;orthogonalLoop=1;strokeColor=#B3B3B3;strokeWidth=1;fontFamily=Verdana;fontSize=12" parent="1" source="1ea317790d2ca983-3" target="1ea317790d2ca983-4" edge="1">
          <mxGeometry relative="1" as="geometry" />
        </mxCell>
        <mxCell id="1ea317790d2ca983-3" value="&lt;span&gt;Resultados deseables&lt;/span&gt;" style="ellipse;whiteSpace=wrap;html=1;rounded=0;shadow=1;comic=0;labelBackgroundColor=none;strokeWidth=1;fontFamily=Verdana;fontSize=12;align=center;" parent="1" vertex="1">
          <mxGeometry x="80" y="340" width="200" height="30" as="geometry" />
        </mxCell>
        <mxCell id="1ea317790d2ca983-4" value="&lt;span&gt;sistema de informaci칩n&lt;/span&gt;" style="ellipse;whiteSpace=wrap;html=1;rounded=0;shadow=1;comic=0;labelBackgroundColor=none;strokeWidth=1;fontFamily=Verdana;fontSize=12;align=center;fillColor=#d5e8d4;strokeColor=#82b366;fillStyle=auto;" parent="1" vertex="1">
          <mxGeometry x="60" y="450" width="200" height="40" as="geometry" />
        </mxCell>
        <mxCell id="1ea317790d2ca983-17" value="puede ser" style="edgeStyle=none;rounded=1;html=1;labelBackgroundColor=none;startArrow=none;startFill=0;startSize=5;endArrow=classicThin;endFill=1;endSize=5;jettySize=auto;orthogonalLoop=1;strokeColor=#B3B3B3;strokeWidth=1;fontFamily=Verdana;fontSize=12;" parent="1" source="1ea317790d2ca983-7" target="1ea317790d2ca983-5" edge="1">
          <mxGeometry relative="1" as="geometry" />
        </mxCell>
        <mxCell id="1ea317790d2ca983-5" value="&lt;span&gt;Comunicaciones&lt;/span&gt;" style="ellipse;whiteSpace=wrap;html=1;rounded=0;shadow=1;comic=0;labelBackgroundColor=none;strokeWidth=1;fontFamily=Verdana;fontSize=12;align=center;" parent="1" vertex="1">
          <mxGeometry x="880" y="510" width="120" height="50" as="geometry" />
        </mxCell>
        <mxCell id="1ea317790d2ca983-6" value="&lt;span&gt;Hardware&lt;/span&gt;" style="ellipse;whiteSpace=wrap;html=1;rounded=0;shadow=1;comic=0;labelBackgroundColor=none;strokeWidth=1;fontFamily=Verdana;fontSize=12;align=center;" parent="1" vertex="1">
          <mxGeometry x="925" y="300" width="90" height="50" as="geometry" />
        </mxCell>
        <mxCell id="1ea317790d2ca983-24" value="puede ser" style="edgeStyle=none;rounded=1;html=1;labelBackgroundColor=none;startArrow=none;startFill=0;startSize=5;endArrow=classicThin;endFill=1;endSize=5;jettySize=auto;orthogonalLoop=1;strokeColor=#B3B3B3;strokeWidth=1;fontFamily=Verdana;fontSize=12;" parent="1" source="1ea317790d2ca983-7" target="1ea317790d2ca983-8" edge="1">
          <mxGeometry relative="1" as="geometry" />
        </mxCell>
        <mxCell id="1ea317790d2ca983-7" value="&lt;span&gt;equipamientos&lt;/span&gt;" style="ellipse;whiteSpace=wrap;html=1;rounded=0;shadow=1;comic=0;labelBackgroundColor=none;strokeWidth=1;fontFamily=Verdana;fontSize=12;align=center;" parent="1" vertex="1">
          <mxGeometry x="765" y="230" width="120" height="50" as="geometry" />
        </mxCell>
        <mxCell id="1ea317790d2ca983-8" value="Software" style="ellipse;whiteSpace=wrap;html=1;rounded=0;shadow=1;comic=0;labelBackgroundColor=none;strokeWidth=1;fontFamily=Verdana;fontSize=12;align=center;" parent="1" vertex="1">
          <mxGeometry x="680" y="450" width="95" height="50" as="geometry" />
        </mxCell>
        <mxCell id="1ea317790d2ca983-9" value="sistema" style="ellipse;whiteSpace=wrap;html=1;rounded=0;shadow=1;comic=0;labelBackgroundColor=none;strokeWidth=1;fontFamily=Verdana;fontSize=12;align=center;" parent="1" vertex="1">
          <mxGeometry x="550" y="280" width="105" height="50" as="geometry" />
        </mxCell>
        <mxCell id="r47rxqq6m4chu2-6YB-k-3" value="cursos" style="ellipse;whiteSpace=wrap;html=1;rounded=0;shadow=1;comic=0;labelBackgroundColor=none;strokeWidth=1;fontFamily=Verdana;fontSize=12;align=center;fillColor=default;fillStyle=solid;" vertex="1" parent="1">
          <mxGeometry x="490" y="450" width="75" height="50" as="geometry" />
        </mxCell>
        <mxCell id="r47rxqq6m4chu2-6YB-k-6" value="acci칩n" style="ellipse;whiteSpace=wrap;html=1;rounded=0;shadow=1;comic=0;labelBackgroundColor=none;strokeWidth=1;fontFamily=Verdana;fontSize=12;align=center;" vertex="1" parent="1">
          <mxGeometry x="322.5" y="530" width="75" height="50" as="geometry" />
        </mxCell>
        <mxCell id="r47rxqq6m4chu2-6YB-k-7" value="simult치neos" style="ellipse;whiteSpace=wrap;html=1;rounded=0;shadow=1;comic=0;labelBackgroundColor=none;strokeWidth=1;fontFamily=Verdana;fontSize=12;align=center;" vertex="1" parent="1">
          <mxGeometry x="140" y="620" width="95" height="50" as="geometry" />
        </mxCell>
        <mxCell id="r47rxqq6m4chu2-6YB-k-8" value="secuenciales" style="ellipse;whiteSpace=wrap;html=1;rounded=0;shadow=1;comic=0;labelBackgroundColor=none;strokeWidth=1;fontFamily=Verdana;fontSize=12;align=center;" vertex="1" parent="1">
          <mxGeometry x="500" y="600" width="105" height="50" as="geometry" />
        </mxCell>
        <mxCell id="r47rxqq6m4chu2-6YB-k-33" value="" style="endArrow=classic;html=1;rounded=1;shadow=0;labelBackgroundColor=none;strokeColor=#B3B3B3;strokeWidth=1;fontFamily=Verdana;fontSize=12;fontColor=default;startSize=5;endSize=5;shape=connector;exitX=0.5;exitY=1;exitDx=0;exitDy=0;" edge="1" parent="1" source="1ea317790d2ca983-9" target="r47rxqq6m4chu2-6YB-k-3">
          <mxGeometry relative="1" as="geometry">
            <mxPoint x="480" y="460" as="sourcePoint" />
            <mxPoint x="580" y="460" as="targetPoint" />
          </mxGeometry>
        </mxCell>
        <mxCell id="r47rxqq6m4chu2-6YB-k-34" value="tiene" style="edgeLabel;resizable=0;html=1;align=center;verticalAlign=middle;fillStyle=solid;fontFamily=Verdana;fontSize=12;fontColor=default;fillColor=default;" connectable="0" vertex="1" parent="r47rxqq6m4chu2-6YB-k-33">
          <mxGeometry relative="1" as="geometry" />
        </mxCell>
        <mxCell id="r47rxqq6m4chu2-6YB-k-35" value="" style="endArrow=classic;html=1;rounded=1;shadow=0;labelBackgroundColor=none;strokeColor=#B3B3B3;strokeWidth=1;fontFamily=Verdana;fontSize=12;fontColor=default;startSize=5;endSize=5;shape=connector;exitX=0.079;exitY=0.728;exitDx=0;exitDy=0;exitPerimeter=0;" edge="1" parent="1" source="r47rxqq6m4chu2-6YB-k-3" target="r47rxqq6m4chu2-6YB-k-6">
          <mxGeometry relative="1" as="geometry">
            <mxPoint x="480" y="460" as="sourcePoint" />
            <mxPoint x="580" y="460" as="targetPoint" />
          </mxGeometry>
        </mxCell>
        <mxCell id="r47rxqq6m4chu2-6YB-k-36" value="es de" style="edgeLabel;resizable=0;html=1;align=center;verticalAlign=middle;fillStyle=solid;fontFamily=Verdana;fontSize=12;fontColor=default;fillColor=default;" connectable="0" vertex="1" parent="r47rxqq6m4chu2-6YB-k-35">
          <mxGeometry relative="1" as="geometry" />
        </mxCell>
        <mxCell id="r47rxqq6m4chu2-6YB-k-47" value="" style="endArrow=classic;html=1;rounded=1;shadow=0;labelBackgroundColor=none;strokeColor=#B3B3B3;strokeWidth=1;fontFamily=Verdana;fontSize=12;fontColor=default;startSize=5;endSize=5;shape=connector;exitX=0;exitY=1;exitDx=0;exitDy=0;" edge="1" parent="1" source="r47rxqq6m4chu2-6YB-k-6" target="r47rxqq6m4chu2-6YB-k-7">
          <mxGeometry relative="1" as="geometry">
            <mxPoint x="480" y="460" as="sourcePoint" />
            <mxPoint x="580" y="460" as="targetPoint" />
          </mxGeometry>
        </mxCell>
        <mxCell id="r47rxqq6m4chu2-6YB-k-48" value="puede ser" style="edgeLabel;resizable=0;html=1;align=center;verticalAlign=middle;fillStyle=solid;fontFamily=Verdana;fontSize=12;fontColor=default;fillColor=default;" connectable="0" vertex="1" parent="r47rxqq6m4chu2-6YB-k-47">
          <mxGeometry relative="1" as="geometry" />
        </mxCell>
        <mxCell id="r47rxqq6m4chu2-6YB-k-49" value="" style="endArrow=classic;html=1;rounded=1;shadow=0;labelBackgroundColor=none;strokeColor=#B3B3B3;strokeWidth=1;fontFamily=Verdana;fontSize=12;fontColor=default;startSize=5;endSize=5;shape=connector;exitX=1;exitY=1;exitDx=0;exitDy=0;" edge="1" parent="1" source="r47rxqq6m4chu2-6YB-k-6" target="r47rxqq6m4chu2-6YB-k-8">
          <mxGeometry relative="1" as="geometry">
            <mxPoint x="480" y="460" as="sourcePoint" />
            <mxPoint x="580" y="460" as="targetPoint" />
          </mxGeometry>
        </mxCell>
        <mxCell id="r47rxqq6m4chu2-6YB-k-50" value="puede ser" style="edgeLabel;resizable=0;html=1;align=center;verticalAlign=middle;fillStyle=solid;fontFamily=Verdana;fontSize=12;fontColor=default;fillColor=default;" connectable="0" vertex="1" parent="r47rxqq6m4chu2-6YB-k-49">
          <mxGeometry relative="1" as="geometry" />
        </mxCell>
        <mxCell id="r47rxqq6m4chu2-6YB-k-51" value="i" style="endArrow=classic;html=1;rounded=1;shadow=0;labelBackgroundColor=none;strokeColor=#B3B3B3;strokeWidth=1;fontFamily=Verdana;fontSize=12;fontColor=default;startSize=5;endSize=5;shape=connector;exitX=0.5;exitY=1;exitDx=0;exitDy=0;entryX=0.554;entryY=-0.017;entryDx=0;entryDy=0;entryPerimeter=0;" edge="1" parent="1" source="1ea317790d2ca983-1" target="1ea317790d2ca983-2">
          <mxGeometry relative="1" as="geometry">
            <mxPoint x="490" y="370" as="sourcePoint" />
            <mxPoint x="590" y="370" as="targetPoint" />
          </mxGeometry>
        </mxCell>
        <mxCell id="r47rxqq6m4chu2-6YB-k-52" value="incluye" style="edgeLabel;resizable=0;html=1;align=center;verticalAlign=middle;fillStyle=solid;fontFamily=Verdana;fontSize=12;fontColor=default;fillColor=default;" connectable="0" vertex="1" parent="r47rxqq6m4chu2-6YB-k-51">
          <mxGeometry relative="1" as="geometry" />
        </mxCell>
        <mxCell id="r47rxqq6m4chu2-6YB-k-55" value="" style="endArrow=classic;html=1;rounded=1;shadow=0;labelBackgroundColor=none;strokeColor=#B3B3B3;strokeWidth=1;fontFamily=Verdana;fontSize=12;fontColor=default;startSize=5;endSize=5;shape=connector;" edge="1" parent="1" source="r47rxqq6m4chu2-6YB-k-3" target="1ea317790d2ca983-2">
          <mxGeometry relative="1" as="geometry">
            <mxPoint x="340" y="390" as="sourcePoint" />
            <mxPoint x="440" y="390" as="targetPoint" />
          </mxGeometry>
        </mxCell>
        <mxCell id="r47rxqq6m4chu2-6YB-k-56" value="tiene" style="edgeLabel;resizable=0;html=1;align=center;verticalAlign=middle;fillStyle=solid;fontFamily=Verdana;fontSize=12;fontColor=default;fillColor=default;" connectable="0" vertex="1" parent="r47rxqq6m4chu2-6YB-k-55">
          <mxGeometry relative="1" as="geometry" />
        </mxCell>
        <mxCell id="r47rxqq6m4chu2-6YB-k-57" value="ti" style="endArrow=classic;html=1;rounded=1;shadow=0;labelBackgroundColor=none;strokeColor=#B3B3B3;strokeWidth=1;fontFamily=Verdana;fontSize=12;fontColor=default;startSize=5;endSize=5;shape=connector;" edge="1" parent="1" source="r47rxqq6m4chu2-6YB-k-3" target="1ea317790d2ca983-7">
          <mxGeometry relative="1" as="geometry">
            <mxPoint x="340" y="430" as="sourcePoint" />
            <mxPoint x="440" y="430" as="targetPoint" />
          </mxGeometry>
        </mxCell>
        <mxCell id="r47rxqq6m4chu2-6YB-k-58" value="tiene" style="edgeLabel;resizable=0;html=1;align=center;verticalAlign=middle;fillStyle=solid;fontFamily=Verdana;fontSize=12;fontColor=default;fillColor=default;" connectable="0" vertex="1" parent="r47rxqq6m4chu2-6YB-k-57">
          <mxGeometry relative="1" as="geometry" />
        </mxCell>
        <mxCell id="r47rxqq6m4chu2-6YB-k-59" value="o" style="endArrow=classic;html=1;rounded=1;shadow=0;labelBackgroundColor=none;strokeColor=#B3B3B3;strokeWidth=1;fontFamily=Verdana;fontSize=12;fontColor=default;startSize=5;endSize=5;shape=connector;exitX=0;exitY=0.5;exitDx=0;exitDy=0;" edge="1" parent="1" source="r47rxqq6m4chu2-6YB-k-3" target="1ea317790d2ca983-3">
          <mxGeometry relative="1" as="geometry">
            <mxPoint x="340" y="390" as="sourcePoint" />
            <mxPoint x="440" y="390" as="targetPoint" />
          </mxGeometry>
        </mxCell>
        <mxCell id="r47rxqq6m4chu2-6YB-k-60" value="obtiene" style="edgeLabel;resizable=0;html=1;align=center;verticalAlign=middle;fillStyle=solid;fontFamily=Verdana;fontSize=12;fontColor=default;fillColor=default;" connectable="0" vertex="1" parent="r47rxqq6m4chu2-6YB-k-59">
          <mxGeometry relative="1" as="geometry" />
        </mxCell>
        <mxCell id="r47rxqq6m4chu2-6YB-k-61" value="&lt;span&gt;Servicio&lt;/span&gt;" style="ellipse;whiteSpace=wrap;html=1;rounded=0;shadow=1;comic=0;labelBackgroundColor=none;strokeWidth=1;fontFamily=Verdana;fontSize=12;align=center;fillStyle=auto;fontColor=default;fillColor=default;" vertex="1" parent="1">
          <mxGeometry x="20" y="185" width="90" height="30" as="geometry" />
        </mxCell>
        <mxCell id="r47rxqq6m4chu2-6YB-k-63" value="&lt;span&gt;Producci칩n&lt;/span&gt;" style="ellipse;whiteSpace=wrap;html=1;rounded=0;shadow=1;comic=0;labelBackgroundColor=none;strokeWidth=1;fontFamily=Verdana;fontSize=12;align=center;fillStyle=auto;fontColor=default;fillColor=default;" vertex="1" parent="1">
          <mxGeometry x="90" y="110" width="90" height="30" as="geometry" />
        </mxCell>
        <mxCell id="r47rxqq6m4chu2-6YB-k-64" value="&lt;span&gt;Estrat칠gicos&lt;/span&gt;" style="ellipse;whiteSpace=wrap;html=1;rounded=0;shadow=1;comic=0;labelBackgroundColor=none;strokeWidth=1;fontFamily=Verdana;fontSize=12;align=center;fillStyle=auto;fontColor=default;fillColor=default;" vertex="1" parent="1">
          <mxGeometry x="180" y="160" width="90" height="30" as="geometry" />
        </mxCell>
        <mxCell id="r47rxqq6m4chu2-6YB-k-65" value="" style="endArrow=classic;html=1;rounded=1;shadow=0;labelBackgroundColor=none;strokeColor=#B3B3B3;strokeWidth=1;fontFamily=Verdana;fontSize=12;fontColor=default;startSize=5;endSize=5;shape=connector;exitX=0;exitY=0;exitDx=0;exitDy=0;entryX=0.5;entryY=1;entryDx=0;entryDy=0;" edge="1" parent="1" source="1ea317790d2ca983-3" target="r47rxqq6m4chu2-6YB-k-61">
          <mxGeometry relative="1" as="geometry">
            <mxPoint x="220" y="400" as="sourcePoint" />
            <mxPoint x="320" y="400" as="targetPoint" />
          </mxGeometry>
        </mxCell>
        <mxCell id="r47rxqq6m4chu2-6YB-k-66" value="objetivo" style="edgeLabel;resizable=0;html=1;align=center;verticalAlign=middle;fillStyle=auto;fontFamily=Verdana;fontSize=12;fontColor=default;fillColor=default;" connectable="0" vertex="1" parent="r47rxqq6m4chu2-6YB-k-65">
          <mxGeometry relative="1" as="geometry" />
        </mxCell>
        <mxCell id="r47rxqq6m4chu2-6YB-k-69" value="" style="endArrow=classic;html=1;rounded=1;shadow=0;labelBackgroundColor=none;strokeColor=#B3B3B3;strokeWidth=1;fontFamily=Verdana;fontSize=12;fontColor=default;startSize=5;endSize=5;shape=connector;exitX=0.235;exitY=0.1;exitDx=0;exitDy=0;exitPerimeter=0;" edge="1" parent="1" source="1ea317790d2ca983-3" target="r47rxqq6m4chu2-6YB-k-63">
          <mxGeometry relative="1" as="geometry">
            <mxPoint x="89.28932188134559" y="294.3933982822018" as="sourcePoint" />
            <mxPoint x="75" y="225" as="targetPoint" />
          </mxGeometry>
        </mxCell>
        <mxCell id="r47rxqq6m4chu2-6YB-k-70" value="objetivo" style="edgeLabel;resizable=0;html=1;align=center;verticalAlign=middle;fillStyle=auto;fontFamily=Verdana;fontSize=12;fontColor=default;fillColor=default;" connectable="0" vertex="1" parent="r47rxqq6m4chu2-6YB-k-69">
          <mxGeometry relative="1" as="geometry" />
        </mxCell>
        <mxCell id="r47rxqq6m4chu2-6YB-k-71" value="" style="endArrow=classic;html=1;rounded=1;shadow=0;labelBackgroundColor=none;strokeColor=#B3B3B3;strokeWidth=1;fontFamily=Verdana;fontSize=12;fontColor=default;startSize=5;endSize=5;shape=connector;exitX=0.27;exitY=-0.1;exitDx=0;exitDy=0;entryX=0;entryY=1;entryDx=0;entryDy=0;exitPerimeter=0;" edge="1" parent="1" source="1ea317790d2ca983-3" target="r47rxqq6m4chu2-6YB-k-64">
          <mxGeometry relative="1" as="geometry">
            <mxPoint x="89.28932188134559" y="294.3933982822018" as="sourcePoint" />
            <mxPoint x="75" y="225" as="targetPoint" />
          </mxGeometry>
        </mxCell>
        <mxCell id="r47rxqq6m4chu2-6YB-k-72" value="objetivo" style="edgeLabel;resizable=0;html=1;align=center;verticalAlign=middle;fillStyle=auto;fontFamily=Verdana;fontSize=12;fontColor=default;fillColor=default;" connectable="0" vertex="1" parent="r47rxqq6m4chu2-6YB-k-71">
          <mxGeometry relative="1" as="geometry" />
        </mxCell>
      </root>
    </mxGraphModel>
  </diagram>
</mxfile>
